# File created by Blade
# Date/Time:  Tue Apr 07 21:36:51 2015
#---------------------------------------------------------
:version 1.10
:name HOM
:units
  mass 1.0
  length 1.000000
  angle deg
:documentation
     Acclaim Skeleton File
:root
   axis xyz
   order TX TY TZ RX RY RZ
   position 0.000000 0.000000 0.000000
   orientation 0 0 0
:bonedata
   begin
      id 1
      name Spine_dum
      direction 0.000000 1.000000 0.000000
      length 4.885285
      axis 0.0 0.0 0.0 xyz
   end
   begin
      id 2
      name LeftUpLeg_dum
      direction 1.000000 0.000000 0.000000
      length 2.672193
      axis 0.0 0.0 0.0 xyz
   end
   begin
      id 3
      name RightUpLeg_dum
      direction -1.000000 0.000000 0.000000
      length 2.672193
      axis 0.0 0.0 0.0 xyz
   end
   begin
      id 4
      name Spine
      direction 0.000000 1.000000 0.000000
      length 0.000000
      axis 0.0 0.0 0.0 xyz
      dof rx ry rz
   end
   begin
      id 5
      name Spine_dum1
      direction 0.000000 1.000000 0.000000
      length 16.494159
      axis 0.0 0.0 0.0 xyz
   end
   begin
      id 6
      name Spine_dum2
      direction 0.000000 1.000000 0.000000
      length 10.663448
      axis 0.0 0.0 0.0 xyz
   end
   begin
      id 7
      name Spine_dum3
      direction 0.000000 1.000000 0.000000
      length 10.663448
      axis 0.0 0.0 0.0 xyz
   end
   begin
      id 8
      name Head
      direction 0.000000 1.000000 0.000000
      length 4.527550
      axis 0.0 0.0 0.0 xyz
      dof rx ry rz
   end
   begin
      id 9
      name LeftShoulder
      direction 1.000000 0.000000 0.000000
      length 7.531907
      axis 0.0 0.0 -90.0 xyz
      dof rx ry rz
   end
   begin
      id 10
      name LeftArm
      direction 1.000000 0.000000 0.000000
      length 10.229199
      axis 0.0 0.0 -90.0 xyz
      dof rx ry rz
   end
   begin
      id 11
      name LeftForeArm
      direction 1.000000 0.000000 0.000000
      length 8.673495
      axis 0.0 0.0 -90.0 xyz
      dof ry rz rx
   end
   begin
      id 12
      name LeftHand
      direction 0.000000 0.000000 0.000000
      length 0.000000
      axis 0.0 0.0 -90.0 xyz
      dof rx ry rz
   end
   begin
      id 13
      name LeftHand_dum1
      direction 0.000000 0.000000 0.000000
      length 0.000000
      axis 0.0 0.0 -90.0 xyz
   end
   begin
      id 14
      name LeftHand_dum2
      direction 1.000000 0.000000 0.000000
      length 3.937000
      axis 0.0 0.0 -90.0 xyz
   end
   begin
      id 15
      name LeftHandThumb1
      direction 0.000000 0.000000 1.000000
      length 3.937000
      axis 0.0 0.0 -90.0 xyz
      dof rx rz ry
   end
   begin
      id 16
      name RightShoulder
      direction -1.000000 0.000000 0.000000
      length 7.531907
      axis 0.0 0.0 90.0 xyz
      dof rx ry rz
   end
   begin
      id 17
      name RightArm
      direction -1.000000 0.000000 0.000000
      length 10.229199
      axis 0.0 0.0 90.0 xyz
      dof rx ry rz
   end
   begin
      id 18
      name RightForeArm
      direction -1.000000 0.000000 0.000000
      length 8.673495
      axis 0.0 0.0 90.0 xyz
      dof ry rz rx
   end
   begin
      id 19
      name RightHand
      direction 0.000000 0.000000 0.000000
      length 0.000000
      axis 0.0 0.0 90.0 xyz
      dof rx ry rz
   end
   begin
      id 20
      name RightHand_dum1
      direction 0.000000 0.000000 0.000000
      length 0.000000
      axis 0.0 0.0 90.0 xyz
   end
   begin
      id 21
      name RightHand_dum2
      direction -1.000000 0.000000 0.000000
      length 3.937000
      axis 0.0 0.0 90.0 xyz
   end
   begin
      id 22
      name RightHandThumb1
      direction 0.000000 0.000000 1.000000
      length 3.937000
      axis 0.0 0.0 90.0 xyz
      dof rx rz ry
   end
   begin
      id 23
      name LeftUpLeg
      direction 0.000000 -1.000000 0.000000
      length 16.263388
      axis 0.0 0.0 0.0 xyz
      dof rx ry rz
   end
   begin
      id 24
      name LeftLeg
      direction 0.000000 -1.000000 0.000000
      length 14.328163
      axis 0.0 0.0 0.0 xyz
      dof rx ry rz
   end
   begin
      id 25
      name LeftFoot
      direction 0.000000 -0.258819 0.965926
      length 5.031290
      axis 15.0 0.0 0.0 xyz
      dof rx ry rz
   end
   begin
      id 26
      name LeftToeBase
      direction 0.000000 0.000000 1.000000
      length 2.952750
      axis 0.0 0.0 0.0 xyz
      dof rx ry rz
   end
   begin
      id 27
      name RightUpLeg
      direction 0.000000 -1.000000 0.000000
      length 16.263388
      axis 0.0 0.0 0.0 xyz
      dof rx ry rz
   end
   begin
      id 28
      name RightLeg
      direction 0.000000 -1.000000 0.000000
      length 14.328163
      axis 0.0 0.0 0.0 xyz
      dof rx ry rz
   end
   begin
      id 29
      name RightFoot
      direction 0.000000 -0.258819 0.965926
      length 5.031290
      axis 15.0 0.0 0.0 xyz
      dof rx ry rz
   end
   begin
      id 30
      name RightToeBase
      direction 0.000000 0.000000 1.000000
      length 2.952750
      axis 0.0 0.0 0.0 xyz
      dof rx ry rz
   end
:hierarchy
   begin
      root Spine_dum LeftUpLeg_dum RightUpLeg_dum
      Spine_dum Spine
      LeftUpLeg_dum LeftUpLeg
      RightUpLeg_dum RightUpLeg
      Spine Spine_dum1 Spine_dum2 Spine_dum3
      Spine_dum1 Head
      Spine_dum2 LeftShoulder
      Spine_dum3 RightShoulder
      LeftShoulder LeftArm
      LeftArm LeftForeArm
      LeftForeArm LeftHand
      LeftHand LeftHand_dum1 LeftHand_dum2
      LeftHand_dum1 LeftHandThumb1
      RightShoulder RightArm
      RightArm RightForeArm
      RightForeArm RightHand
      RightHand RightHand_dum1 RightHand_dum2
      RightHand_dum1 RightHandThumb1
      LeftUpLeg LeftLeg
      LeftLeg LeftFoot
      LeftFoot LeftToeBase
      RightUpLeg RightLeg
      RightLeg RightFoot
      RightFoot RightToeBase
   end

# File created by Blade
# Date/Time:  Tue Apr 07 21:36:59 2015
# Frame Rate: 120.000 fps
#------------------------------------------------------
:FULLY-SPECIFIED
:DEGREES
63
root -2.668639 33.001283 7.517043 8.151848 2.295806 -1.723224
Spine -8.515748 -5.820799 1.413345
Head 14.099702 -13.748727 0.480333
LeftShoulder -21.018192 41.269582 18.199981
LeftArm 60.181369 -54.648253 -66.225747
LeftForeArm 4.156302 -0.000000 2.039011
LeftHand 7.826411 0.000000 11.617508
LeftHandThumb1 -26.253704 0.000000 33.147579
RightShoulder -7.645786 1.851353 -29.349111
RightArm 12.963347 12.499099 42.264065
RightForeArm -13.664068 0.000000 6.302612
RightHand 8.156115 -0.000000 -8.966516
RightHandThumb1 -24.326973 -0.000000 -32.862282
LeftUpLeg 0.317055 1.618815 3.742521
LeftLeg -5.876624 -0.000000 0.000000
LeftFoot -4.045405 5.949545 -22.268637
LeftToeBase -4.324387 -0.000000 0.000000
RightUpLeg -0.985138 0.209817 3.238846
RightLeg -4.302963 -0.000000 0.000000
RightFoot -6.026760 -18.783730 6.841805
RightToeBase -3.861872 -0.000000 0.000000
64
root -2.710756 33.002848 7.533038 8.174427 2.277768 -1.723003
Spine -8.521201 -5.876561 1.399385
Head 14.157726 -14.053270 0.608230
LeftShoulder -20.920473 41.565325 17.872949
LeftArm 60.197603 -53.949436 -66.571755
LeftForeArm 4.157829 -0.000000 2.194298
LeftHand 8.033450 0.000000 12.122563
LeftHandThumb1 -26.253704 0.000000 33.147579
RightShoulder -7.569836 1.589098 -29.003553
RightArm 12.820066 12.454112 42.832886
RightForeArm -13.534460 -0.000000 6.535400
RightHand 8.309700 -0.000000 -8.733863
RightHandThumb1 -24.326973 -0.000000 -32.862282
LeftUpLeg 0.276054 1.681903 3.817219
LeftLeg -5.782053 -0.000000 0.000000
LeftFoot -4.008412 5.838181 -22.566121
LeftToeBase -4.773840 -0.000000 0.000000
RightUpLeg -1.060647 0.429062 3.281250
RightLeg -4.134476 -0.000000 0.000000
RightFoot -6.176743 -18.759846 7.001880
RightToeBase -3.733634 -0.000000 0.000000
65
root -2.752212 33.003682 7.542769 8.246302 2.219169 -1.695705
Spine -8.550941 -5.880511 1.341255
Head 14.168717 -14.392863 0.795065
LeftShoulder -20.785353 41.808485 17.558856
LeftArm 60.151499 -53.218054 -66.810603
LeftForeArm 4.200554 -0.000000 2.239484
LeftHand 8.389032 -0.000000 12.388139
LeftHandThumb1 -26.253704 0.000000 33.147579
RightShoulder -7.582690 1.199406 -28.649221
RightArm 12.852347 12.468500 43.562101
RightForeArm -13.627794 -0.000000 6.693491
RightHand 8.356011 0.000000 -8.357653
RightHandThumb1 -24.326973 -0.000000 -32.862282
LeftUpLeg 0.166825 1.789366 3.851142
LeftLeg -5.643490 -0.000000 0.000000
LeftFoot -4.132205 5.810837 -22.460789
LeftToeBase -4.382178 -0.000000 0.000000
RightUpLeg -1.222605 0.638478 3.296767
RightLeg -3.908756 -0.000000 0.000000
RightFoot -6.241266 -18.742143 6.929195
RightToeBase -3.857273 -0.000000 0.000000
66
root -2.790666 33.004376 7.559269 8.236157 2.227743 -1.681401
Spine -8.505368 -6.000979 1.336283
Head 14.206768 -14.668289 0.915626
LeftShoulder -20.813573 42.175711 17.115919
LeftArm 60.369334 -52.351738 -67.255993
LeftForeArm 4.183162 -0.000000 2.253749
LeftHand 8.175650 -0.000000 12.363693
LeftHandThumb1 -26.253704 0.000000 33.147579
RightShoulder -7.562898 0.955329 -28.314379
RightArm 12.848138 12.367108 44.295057
RightForeArm -13.703882 -0.000000 6.806745
RightHand 8.353950 -0.000000 -8.364470
RightHandThumb1 -24.326973 -0.000000 -32.862282
LeftUpLeg 0.140121 1.838649 3.903462
LeftLeg -5.506209 -0.000000 0.000000
LeftFoot -4.179482 5.726889 -22.512043
LeftToeBase -4.513804 -0.000000 0.000000
RightUpLeg -1.265110 0.791260 3.327908
RightLeg -3.726615 -0.000000 0.000000
RightFoot -6.323163 -18.704754 6.933460
RightToeBase -3.943117 -0.000000 0.000000
